<?xml version="1.0" standalone="no"?>
<!DOCTYPE svg PUBLIC "-//W3C//DTD SVG 20010904//EN"
 "http://www.w3.org/TR/2001/REC-SVG-20010904/DTD/svg10.dtd">
<svg version="1.0" xmlns="http://www.w3.org/2000/svg"
 width="512.000000pt" height="512.000000pt" viewBox="0 0 512.000000 512.000000"
 preserveAspectRatio="xMidYMid meet">
<metadata>
Created by potrace 1.14, written by Peter Selinger 2001-2017
</metadata>
<g transform="translate(0.000000,512.000000) scale(0.100000,-0.100000)"
fill="#000000" stroke="none">
<path d="M3114 4495 c-121 -26 -205 -92 -256 -201 -33 -70 -38 -139 -25 -294
4 -41 10 -133 13 -205 3 -71 7 -146 9 -167 3 -34 -1 -40 -78 -111 -45 -41
-104 -96 -132 -121 -27 -25 -56 -46 -65 -47 -8 0 -33 -2 -55 -4 -22 -2 -76 -6
-120 -10 -44 -3 -93 -8 -110 -10 -48 -6 -116 -14 -170 -20 -27 -4 -57 -8 -65
-10 -8 -3 -33 -7 -55 -10 -168 -24 -632 -134 -674 -159 -4 -3 -18 -7 -32 -9
-37 -7 -291 -102 -424 -159 -316 -135 -838 -439 -868 -505 -15 -34 2 -75 39
-93 25 -12 31 -20 29 -40 -5 -45 31 -116 99 -196 200 -233 262 -470 207 -782
-6 -31 -13 -75 -16 -97 -4 -22 -8 -47 -11 -56 -2 -9 -7 -32 -9 -50 -11 -88
-28 -146 -75 -264 -28 -71 -54 -150 -57 -176 -5 -45 -4 -49 26 -67 58 -35 104
-6 131 85 13 41 13 42 59 41 31 -1 75 11 135 36 82 33 164 60 226 72 14 3 32
7 40 9 33 9 140 18 215 18 93 -1 151 -8 255 -31 41 -9 112 -17 156 -16 l82 0
-12 -35 c-13 -40 -14 -46 -2 -79 15 -44 104 -53 126 -13 5 10 23 61 40 114
124 388 349 784 638 1122 94 110 309 327 414 419 l68 58 92 -22 c51 -13 95
-24 96 -26 3 -2 47 -165 66 -244 16 -63 70 -238 86 -275 48 -112 173 -196 301
-201 82 -3 147 15 217 61 66 45 232 190 254 224 17 24 18 57 3 82 -4 6 14 32
41 60 45 46 49 48 91 42 42 -6 44 -5 96 50 l52 57 125 -5 c69 -3 150 -7 180
-10 285 -24 359 -17 452 45 54 36 114 113 136 173 23 67 24 170 3 231 -16 45
-141 252 -318 525 -52 79 -54 86 -45 120 25 90 51 172 123 386 73 215 77 235
75 305 -3 93 -30 154 -98 221 -101 100 -221 117 -398 55 -58 -20 -203 -68
-323 -106 l-217 -70 -79 53 c-43 28 -105 68 -137 88 -33 20 -117 74 -189 119
-159 100 -190 117 -240 125 -22 3 -49 8 -60 10 -11 1 -48 -3 -81 -10z"/>
<path d="M1438 4190 c-59 -10 -101 -51 -148 -142 -24 -46 -42 -85 -39 -87 5
-4 -1 -7 -92 -50 -111 -52 -147 -92 -157 -174 -10 -91 47 -162 172 -215 l67
-29 45 -91 c46 -95 82 -134 139 -148 72 -19 148 5 190 61 14 17 40 65 59 106
32 69 38 75 83 93 72 28 150 82 168 116 42 80 22 181 -46 233 -35 26 -139 77
-158 77 -6 0 -26 35 -46 77 -45 98 -77 139 -123 159 -45 19 -66 22 -114 14z"/>
<path d="M4200 1810 c-50 -9 -93 -34 -125 -72 -26 -30 -84 -145 -100 -196 -4
-14 -21 -30 -41 -38 -211 -88 -265 -141 -266 -259 -2 -107 78 -186 245 -245
47 -17 50 -20 81 -93 49 -112 80 -160 123 -190 74 -52 181 -45 250 16 33 29
111 169 126 226 3 13 15 25 27 28 42 11 175 80 208 108 89 74 94 209 12 292
-35 37 -122 85 -202 114 -22 7 -41 22 -44 33 -14 44 -67 151 -94 192 -44 63
-126 98 -200 84z"/>
<path d="M2620 1718 c-48 -13 -95 -61 -122 -126 -20 -48 -28 -57 -73 -77 -90
-39 -142 -100 -138 -162 0 -7 1 -24 2 -38 2 -38 64 -99 130 -129 51 -23 60
-31 75 -70 25 -65 83 -125 129 -136 83 -18 156 29 201 130 23 51 31 59 72 75
81 31 137 96 138 160 0 35 -18 84 -39 107 -14 15 -53 41 -88 57 -57 27 -66 36
-81 74 -23 61 -79 124 -119 133 -49 12 -49 12 -87 2z"/>
</g>
</svg>
